<?xml version="1.0" encoding="UTF-8"?>
<svg version="1.1" xmlns="http://www.w3.org/2000/svg" width="180" height="180">
<path d="M0 0 C1.97709961 -0.00386719 1.97709961 -0.00386719 3.99414062 -0.0078125 C5.02027466 -0.00152832 5.02027466 -0.00152832 6.06713867 0.00488281 C8.14987443 0.01557223 10.23174434 0.00498146 12.31445312 -0.0078125 C13.63380859 -0.00523438 14.95316406 -0.00265625 16.3125 0 C17.51769287 0.00225586 18.72288574 0.00451172 19.96459961 0.00683594 C23.17757937 0.26204452 25.39493522 0.73430931 28.22265625 2.265625 C29.03515625 4.890625 29.03515625 4.890625 29.22265625 7.265625 C30.54265625 7.595625 31.86265625 7.925625 33.22265625 8.265625 C33.71765625 11.235625 33.71765625 11.235625 34.22265625 14.265625 C35.54265625 14.265625 36.86265625 14.265625 38.22265625 14.265625 C41.22265625 20.015625 41.22265625 20.015625 41.22265625 22.265625 C42.21265625 21.935625 43.20265625 21.605625 44.22265625 21.265625 C45.21265625 25.225625 45.21265625 25.225625 46.22265625 29.265625 C47.54265625 29.595625 48.86265625 29.925625 50.22265625 30.265625 C50.28453125 31.049375 50.34640625 31.833125 50.41015625 32.640625 C50.81234375 33.94 50.81234375 33.94 51.22265625 35.265625 C52.87470081 35.96774394 54.54189394 36.63533913 56.22265625 37.265625 C57.03515625 39.390625 57.03515625 39.390625 57.22265625 41.265625 C57.84140625 41.3275 58.46015625 41.389375 59.09765625 41.453125 C59.79890625 41.72125 60.50015625 41.989375 61.22265625 42.265625 C61.91923988 43.92001113 62.58362508 45.58816818 63.22265625 47.265625 C64.21265625 47.94625 64.21265625 47.94625 65.22265625 48.640625 C68.13991002 51.01089369 68.41396911 53.69392348 69.22265625 57.265625 C70.54265625 57.595625 71.86265625 57.925625 73.22265625 58.265625 C73.30347719 60.22328781 73.36176403 62.18189228 73.41015625 64.140625 C73.44496094 65.23117188 73.47976562 66.32171875 73.515625 67.4453125 C73.41894531 68.37601562 73.32226562 69.30671875 73.22265625 70.265625 C69.80984283 72.54083395 68.62068316 72.51500998 64.61424255 72.51286316 C62.86276161 72.51915489 62.86276161 72.51915489 61.07589722 72.52557373 C59.15198654 72.51714447 59.15198654 72.51714447 57.18920898 72.50854492 C55.82569793 72.50961784 54.46218731 72.51155666 53.09867859 72.51429749 C49.39164656 72.51915067 45.68473467 72.51148169 41.97771716 72.50134444 C38.09330556 72.49255868 34.20889767 72.49432158 30.32447815 72.4947052 C23.79336542 72.49376796 17.26229907 72.48508055 10.73120117 72.47143555 C3.19858388 72.45575543 -4.33398244 72.45043586 -11.86661488 72.4511711 C-19.90018732 72.45184916 -27.93374031 72.44488813 -35.96730685 72.4357245 C-38.27297526 72.43360137 -40.57864048 72.4328844 -42.88430977 72.43248558 C-46.52454016 72.43147354 -50.16472852 72.42530733 -53.80494499 72.41531944 C-55.76392053 72.4110504 -57.7229047 72.41156206 -59.68188477 72.41226196 C-78.69901423 72.34395452 -78.69901423 72.34395452 -80.77734375 70.265625 C-80.84960877 68.41274998 -80.86115595 66.55728622 -80.83984375 64.703125 C-80.83082031 63.69121094 -80.82179688 62.67929687 -80.8125 61.63671875 C-80.80089844 60.85425781 -80.78929688 60.07179687 -80.77734375 59.265625 C-77.80734375 58.770625 -77.80734375 58.770625 -74.77734375 58.265625 C-74.71546875 57.481875 -74.65359375 56.698125 -74.58984375 55.890625 C-74.32171875 55.024375 -74.05359375 54.158125 -73.77734375 53.265625 C-71.27734375 52.140625 -71.27734375 52.140625 -68.77734375 51.265625 C-68.44734375 50.275625 -68.11734375 49.285625 -67.77734375 48.265625 C-65.9296875 47.31640625 -65.9296875 47.31640625 -63.71484375 46.578125 C-62.61462891 46.20107422 -62.61462891 46.20107422 -61.4921875 45.81640625 C-60.92628906 45.63464844 -60.36039063 45.45289063 -59.77734375 45.265625 C-59.77734375 44.275625 -59.77734375 43.285625 -59.77734375 42.265625 C-56.31234375 41.770625 -56.31234375 41.770625 -52.77734375 41.265625 C-52.77734375 39.615625 -52.77734375 37.965625 -52.77734375 36.265625 C-51.80796875 36.018125 -50.83859375 35.770625 -49.83984375 35.515625 C-48.82921875 35.103125 -47.81859375 34.690625 -46.77734375 34.265625 C-46.40523955 32.94258783 -46.07104202 31.60824565 -45.77734375 30.265625 C-44.12529919 29.56350606 -42.45810606 28.89591087 -40.77734375 28.265625 C-40.28234375 26.780625 -40.28234375 26.780625 -39.77734375 25.265625 C-36.21484375 24.078125 -36.21484375 24.078125 -32.77734375 23.265625 C-32.44734375 21.945625 -32.11734375 20.625625 -31.77734375 19.265625 C-29.46734375 18.935625 -27.15734375 18.605625 -24.77734375 18.265625 C-24.44734375 16.615625 -24.11734375 14.965625 -23.77734375 13.265625 C-22.12734375 12.935625 -20.47734375 12.605625 -18.77734375 12.265625 C-18.68453125 11.3375 -18.68453125 11.3375 -18.58984375 10.390625 C-18.32171875 9.689375 -18.05359375 8.988125 -17.77734375 8.265625 C-16.11661526 7.58430049 -14.44957675 6.91820373 -12.77734375 6.265625 C-12.07796843 4.94915381 -11.41005242 3.61540349 -10.77734375 2.265625 C-7.30028057 -0.09152997 -4.11716336 0.00771365 0 0 Z " fill="#662577" transform="translate(93.77734375,-0.265625)"/>
<path d="M0 0 C1.23821754 0.00067978 1.23821754 0.00067978 2.50144958 0.00137329 C3.79895142 -0.00366463 3.79895142 -0.00366463 5.12266541 -0.00880432 C7.99706945 -0.01834417 10.87141544 -0.02025894 13.74583435 -0.02133179 C15.73501612 -0.02454223 17.72419765 -0.02790614 19.71337891 -0.03141785 C23.88899788 -0.0374167 28.06459613 -0.03925697 32.24021912 -0.03866577 C37.60180493 -0.0385641 42.96325846 -0.05221819 48.32481289 -0.06943798 C52.43479019 -0.08053367 56.54473527 -0.08258573 60.65472603 -0.08205605 C62.6319582 -0.08323977 64.6091911 -0.08768334 66.58640862 -0.09538841 C69.34724681 -0.10513953 72.10779464 -0.1023297 74.86863708 -0.09628296 C75.69209122 -0.10190247 76.51554535 -0.10752197 77.36395264 -0.11331177 C83.02142523 -0.08167841 83.02142523 -0.08167841 85.2497406 2.14663696 C85.49583626 4.00132179 85.49583626 4.00132179 85.49024963 6.29742432 C85.49299896 7.16683151 85.49574829 8.03623871 85.49858093 8.93199158 C85.4877951 10.36589485 85.4877951 10.36589485 85.47679138 11.82876587 C85.47708344 12.83367569 85.47737549 13.83858551 85.47767639 14.87394714 C85.47627916 18.20711803 85.46069942 21.54006746 85.4450531 24.87319946 C85.44132437 27.17962522 85.43847674 29.48605256 85.43647766 31.79248047 C85.42883019 37.87198232 85.40917214 43.95138907 85.3870697 50.03085327 C85.36663524 56.23089308 85.35748108 62.43094821 85.34739685 68.63101196 C85.32592729 80.80293553 85.29073608 92.97476347 85.2497406 105.14663696 C78.9797406 105.14663696 72.7097406 105.14663696 66.2497406 105.14663696 C65.7547406 101.68163696 65.7547406 101.68163696 65.2497406 98.14663696 C63.9297406 98.14663696 62.6097406 98.14663696 61.2497406 98.14663696 C61.0022406 97.17726196 60.7547406 96.20788696 60.4997406 95.20913696 C60.0872406 94.19851196 59.6747406 93.18788696 59.2497406 92.14663696 C57.21730512 91.17786639 57.21730512 91.17786639 55.2497406 91.14663696 C55.2497406 89.49663696 55.2497406 87.84663696 55.2497406 86.14663696 C53.5997406 86.14663696 51.9497406 86.14663696 50.2497406 86.14663696 C49.9197406 84.16663696 49.5897406 82.18663696 49.2497406 80.14663696 C47.5997406 79.81663696 45.9497406 79.48663696 44.2497406 79.14663696 C44.0022406 78.03288696 43.7547406 76.91913696 43.4997406 75.77163696 C42.68313861 72.08248907 42.68313861 72.08248907 40.1872406 71.02163696 C39.5478656 70.73288696 38.9084906 70.44413696 38.2497406 70.14663696 C37.4997406 67.52163696 37.4997406 67.52163696 37.2497406 65.14663696 C36.6309906 65.10538696 36.0122406 65.06413696 35.3747406 65.02163696 C34.6734906 64.73288696 33.9722406 64.44413696 33.2497406 64.14663696 C32.58307393 62.14663696 31.91640727 60.14663696 31.2497406 58.14663696 C29.92670343 57.77453276 28.59236125 57.44033523 27.2497406 57.14663696 C25.9997406 54.58413696 25.9997406 54.58413696 25.2497406 52.14663696 C24.2597406 52.14663696 23.2697406 52.14663696 22.2497406 52.14663696 C21.8166156 51.01226196 21.3834906 49.87788696 20.9372406 48.70913696 C20.3803656 47.53351196 19.8234906 46.35788696 19.2497406 45.14663696 C17.7647406 44.65163696 17.7647406 44.65163696 16.2497406 44.14663696 C15.0622406 40.58413696 15.0622406 40.58413696 14.2497406 37.14663696 C12.9297406 36.81663696 11.6097406 36.48663696 10.2497406 36.14663696 C10.2497406 34.16663696 10.2497406 32.18663696 10.2497406 30.14663696 C8.5997406 30.14663696 6.9497406 30.14663696 5.2497406 30.14663696 C5.0022406 29.17726196 4.7547406 28.20788696 4.4997406 27.20913696 C3.8809906 25.69319946 3.8809906 25.69319946 3.2497406 24.14663696 C1.92670343 23.77453276 0.59236125 23.44033523 -0.7502594 23.14663696 C-1.43158391 21.48590847 -2.09768067 19.81886997 -2.7502594 18.14663696 C-4.75764244 16.97079151 -4.75764244 16.97079151 -6.7502594 16.14663696 C-6.77711035 13.66739895 -6.79702487 11.18844856 -6.8127594 8.70913696 C-6.82532776 7.64856079 -6.82532776 7.64856079 -6.83815002 6.56655884 C-6.84679528 4.75970137 -6.80245951 2.95276094 -6.7502594 1.14663696 C-4.93271049 -0.67091194 -2.42001437 0.01381067 0 0 Z " fill="#ED0C92" transform="translate(19.750259399414063,74.85336303710938)"/>
<path d="M0 0 C14 0 14 0 19 2 C19.8125 4.625 19.8125 4.625 20 7 C21.32 7.33 22.64 7.66 24 8 C24.33 9.98 24.66 11.96 25 14 C26.32 14 27.64 14 29 14 C32 19.75 32 19.75 32 22 C32.99 21.67 33.98 21.34 35 21 C35.66 23.64 36.32 26.28 37 29 C38.32 29.33 39.64 29.66 41 30 C41.061875 30.78375 41.12375 31.5675 41.1875 32.375 C41.455625 33.24125 41.72375 34.1075 42 35 C43.65204456 35.70211894 45.31923769 36.36971413 47 37 C47.8125 39.125 47.8125 39.125 48 41 C48.928125 41.0928125 48.928125 41.0928125 49.875 41.1875 C50.57625 41.455625 51.2775 41.72375 52 42 C52.69658363 43.65438613 53.36096883 45.32254318 54 47 C54.66 47.45375 55.32 47.9075 56 48.375 C58.91725377 50.74526869 59.19131286 53.42829848 60 57 C61.32 57.33 62.64 57.66 64 58 C64.08082094 59.95766281 64.13910778 61.91626728 64.1875 63.875 C64.23970703 65.51082031 64.23970703 65.51082031 64.29296875 67.1796875 C64.19628906 68.11039062 64.09960938 69.04109375 64 70 C60.58766618 72.27488922 59.38826978 72.24854534 55.3828125 72.24291992 C54.23151855 72.24599655 53.08022461 72.24907318 51.89404297 72.25224304 C50.65025879 72.24505753 49.40647461 72.23787201 48.125 72.23046875 C46.84898926 72.23001053 45.57297852 72.22955231 44.25830078 72.2290802 C41.55813318 72.22605667 38.85830614 72.21923796 36.15820312 72.20581055 C32.69801254 72.1888209 29.23796789 72.18499632 25.77774048 72.18575573 C22.47681256 72.18541834 19.17591522 72.17657899 15.875 72.16796875 C14.63121582 72.16685593 13.38743164 72.1657431 12.10595703 72.16459656 C10.37901611 72.15502678 10.37901611 72.15502678 8.6171875 72.14526367 C7.60253418 72.14145187 6.58788086 72.13764008 5.54248047 72.13371277 C3 72 3 72 0 71 C0 47.57 0 24.14 0 0 Z " fill="#EC1F3F" transform="translate(103,0)"/>
<path d="M0 0 C0.99 0 1.98 0 3 0 C3 23.43 3 46.86 3 71 C2.01 71 1.02 71 0 71 C0 47.57 0 24.14 0 0 Z " fill="#55267C" transform="translate(100,0)"/>
</svg>
